<svg width="200" height="60" viewBox="0 0 200 60" xmlns="http://www.w3.org/2000/svg">
  <defs>
    <linearGradient id="blueGradient" x1="0%" y1="0%" x2="100%" y2="100%">
      <stop offset="0%" style="stop-color:#3B82F6;stop-opacity:1" />
      <stop offset="100%" style="stop-color:#1E40AF;stop-opacity:1" />
    </linearGradient>
  </defs>
  
  <!-- Фон -->
  <rect width="200" height="60" fill="black"/>
  
  <!-- Символ MDS -->
  <g transform="translate(10, 10)">
    <!-- M -->
    <path d="M0 40 L0 10 L8 25 L16 10 L24 25 L32 10 L32 40" fill="url(#blueGradient)" stroke="url(#blueGradient)" stroke-width="2"/>
    
    <!-- D -->
    <path d="M40 10 L40 40 L55 40 Q65 40 65 25 Q65 10 55 10 Z" fill="url(#blueGradient)" stroke="url(#blueGradient)" stroke-width="2"/>
    
    <!-- S -->
    <path d="M75 10 Q85 10 85 20 Q85 30 75 30 Q65 30 65 40 Q65 50 75 50" fill="none" stroke="url(#blueGradient)" stroke-width="3" stroke-linecap="round"/>
  </g>
  
  <!-- Текст MDS -->
  <text x="110" y="25" font-family="Arial, sans-serif" font-size="18" font-weight="bold" fill="url(#blueGradient)">MDS</text>
  
  <!-- Текст DOORS -->
  <text x="110" y="45" font-family="Arial, sans-serif" font-size="12" font-style="italic" fill="url(#blueGradient)" transform="rotate(5, 110, 45)">DOORS</text>
</svg>
